# xmcd
#
# Track frame offsets: 
#        150
#        18933
#        38237
#        56660
#        75344
#        94035
#        109631
#        128269
#        147290
#        161375
#        174346
#
# Disc length: 2595 seconds
#
# Revision: 0
# Processed by: cddbd v1.5.2PL0 Copyright (c) Steve Scherf et al.
# Submitted via: ExactAudioCopy v0.99pb5
#
DISCID=760a210b
DTITLE=Sally Barris - Little Voice
DYEAR=2004
DGENRE=Country
TTITLE0=The Song You Know By Heart
TTITLE1=Something Missing
TTITLE2=Midnight Ride To Mississippi
TTITLE3=I Had To Tell Somebody What I Did Last Night
TTITLE4=Little Voice
TTITLE5=There You Are
TTITLE6=Holdin' Back Your Love
TTITLE7=Butterfly
TTITLE8=Some Things I Know
TTITLE9=Where Is My Love
TTITLE10=I Sang To The River
EXTD=
EXTT0=
EXTT1=
EXTT2=
EXTT3=
EXTT4=
EXTT5=
EXTT6=
EXTT7=
EXTT8=
EXTT9=
EXTT10=
PLAYORDER=
